<?xml version="1.0" encoding="UTF-8" standalone="no"?>
<!-- Generator: Adobe Illustrator 18.0.0, SVG Export Plug-In . SVG Version: 6.00 Build 0)  -->

<svg
   xmlns:dc="http://purl.org/dc/elements/1.1/"
   xmlns:cc="http://creativecommons.org/ns#"
   xmlns:rdf="http://www.w3.org/1999/02/22-rdf-syntax-ns#"
   xmlns:svg="http://www.w3.org/2000/svg"
   xmlns="http://www.w3.org/2000/svg"
   xmlns:sodipodi="http://sodipodi.sourceforge.net/DTD/sodipodi-0.dtd"
   xmlns:inkscape="http://www.inkscape.org/namespaces/inkscape"
   version="1.1"
   id="Capa_1"
   x="0px"
   y="0px"
   viewBox="0 0 500.00002 500.00002"
   xml:space="preserve"
   sodipodi:docname="your_mushroom.svg"
   width="500"
   height="500"
   inkscape:version="0.92.2 5c3e80d, 2017-08-06"><metadata
     id="metadata43"><rdf:RDF><cc:Work
         rdf:about=""><dc:format>image/svg+xml</dc:format><dc:type
           rdf:resource="http://purl.org/dc/dcmitype/StillImage" /><dc:title></dc:title></cc:Work></rdf:RDF></metadata><defs
     id="defs41" /><sodipodi:namedview
     pagecolor="#ffffff"
     bordercolor="#666666"
     borderopacity="1"
     objecttolerance="10"
     gridtolerance="10"
     guidetolerance="10"
     inkscape:pageopacity="0"
     inkscape:pageshadow="2"
     inkscape:window-width="1000"
     inkscape:window-height="699"
     id="namedview39"
     showgrid="false"
     inkscape:zoom="0.6283113"
     inkscape:cx="187.80499"
     inkscape:cy="187.80499"
     inkscape:window-x="20"
     inkscape:window-y="21"
     inkscape:window-maximized="0"
     inkscape:current-layer="Capa_1" /><g
     id="g6"
     transform="translate(62.071142,65.502004)"><path
       d="m 241.565,331.954 c 24.673,-43.137 39.329,-91.604 45.828,-140.756 -15.956,0.736 -54.73,-0.213 -54.73,-0.213 0,0 0.064,-0.109 -2.08,6.328 -1.881,5.645 -3.891,11.246 -6.028,16.799 -2.991,7.896 -6.374,15.641 -9.924,23.299 -7.067,15.248 -15.519,29.754 -25.009,43.613 -8.118,11.318 -18.199,20.73 -26.615,31.672 -1.859,-7.535 -6.483,-14.461 -9.812,-21.387 -5.47,-11.387 -10.474,-22.975 -15.089,-34.729 -8.478,-21.594 -15.229,-43.939 -19.574,-66.736 23.652,-0.799 41.773,-3.104 53.189,-5.949 -9.896,-2.618 -17.467,-6.09 -20.368,-10.699 -14.005,-22.232 -10.8,-54.449 8.992,-90.803 -21.179,-27.341 -47.385,-47.55 -60.232,-47.55 -16.543,0 -55.244,33.5 -76.827,72.598 -9.182,16.632 -22.474,47.888 -8.331,70.345 3.065,4.866 24.166,9.98 58.898,11.73 0.762,43.994 9.764,88.119 23.31,129.885 1.148,3.539 2.297,7.078 3.447,10.617 1.307,4.014 -4.77,4.953 -8.104,6.828 -8.874,4.994 -17.17,11.037 -24.54,18.068 -6.359,6.066 -12.396,12.947 -16.646,20.695 80.343,0 160.687,0 241.029,0 -10.759,-19.608 -30.891,-34.497 -50.784,-43.655 0.291,-0.51 37.129,17.094 0,0 z M 51.04,166.548 c -20.529,-8.203 -24.794,-40.795 -4.991,-53.016 -9.226,7.983 -10.867,25.574 -4.824,35.7 2.997,4.433 7.125,6.802 12.202,8.06 6.977,1.728 4.074,11.96 -2.387,9.256 z"
       id="path2"
       inkscape:connector-curvature="0" /><path
       d="M 349.726,85.585 C 324.283,39.493 278.665,0 259.166,0 239.66,0 194.034,39.497 168.592,85.594 c -10.821,19.607 -26.486,56.454 -9.809,82.925 4.447,7.066 41.14,14.575 100.383,14.575 59.242,0 95.936,-7.509 100.385,-14.574 16.671,-26.475 1,-63.325 -9.825,-82.935 z m -9.602,61.576 c -3.054,5.522 -8.094,9.04 -13.746,11.457 -6.611,2.828 -10.405,-6.861 -3.647,-8.832 19.108,-3.807 21.55,-32.207 8.017,-43.918 12.551,7.747 16.159,29.028 9.376,41.293 z"
       id="path4"
       inkscape:connector-curvature="0" /></g><g
     id="g8"
     transform="translate(0,124.39001)" /><g
     id="g10"
     transform="translate(0,124.39001)" /><g
     id="g12"
     transform="translate(0,124.39001)" /><g
     id="g14"
     transform="translate(0,124.39001)" /><g
     id="g16"
     transform="translate(0,124.39001)" /><g
     id="g18"
     transform="translate(0,124.39001)" /><g
     id="g20"
     transform="translate(0,124.39001)" /><g
     id="g22"
     transform="translate(0,124.39001)" /><g
     id="g24"
     transform="translate(0,124.39001)" /><g
     id="g26"
     transform="translate(0,124.39001)" /><g
     id="g28"
     transform="translate(0,124.39001)" /><g
     id="g30"
     transform="translate(0,124.39001)" /><g
     id="g32"
     transform="translate(0,124.39001)" /><g
     id="g34"
     transform="translate(0,124.39001)" /><g
     id="g36"
     transform="translate(0,124.39001)" /></svg>