<?xml version="1.0" encoding="iso-8859-1"?>
<!-- Generator: Adobe Illustrator 19.0.0, SVG Export Plug-In . SVG Version: 6.00 Build 0)  -->
<svg version="1.1" id="Layer_1" xmlns="http://www.w3.org/2000/svg" xmlns:xlink="http://www.w3.org/1999/xlink" x="0px" y="0px"
	 viewBox="0 0 511.999 511.999" style="enable-background:new 0 0 511.999 511.999;" xml:space="preserve">
<g>
	<g>
		<path d="M364.437,73.419c-36.141-28.503-83.254-44.85-129.257-44.85c-4.733,0-8.571,3.837-8.571,8.571s3.837,8.57,8.571,8.57
			c42.224,0,85.468,15.005,118.643,41.168c26.634,21.003,44.528,48.395,44.528,68.159c0,4.733,3.837,8.571,8.57,8.571
			s8.571-3.837,8.571-8.571C415.492,129.528,395.928,98.254,364.437,73.419z"/>
	</g>
</g>
<g>
	<g>
		<path d="M442.036,209.305c-4.545-3.584-9.268-6.917-14.144-9.99c10.736-12.617,16.167-27.465,16.167-44.28
			c0-34.569-23.153-73.467-61.933-104.05C340.437,18.107,288.249,0,235.179,0c-53.07,0-105.258,18.107-146.948,50.986
			c-38.78,30.583-61.933,69.481-61.933,104.05c0,32.306,19.559,56.796,58.136,72.791c19.576,8.118,44.098,14.007,73.261,17.626
			L146.256,384.36c-0.367,3.332-0.552,6.684-0.552,9.965c0,49.255,40.139,89.328,89.476,89.328c15.853,0,31.014-4.065,44.469-11.818
			c2.752,6.802,6.652,13.159,11.64,18.736c12.178,13.618,29.64,21.429,47.909,21.429c18.269,0,35.732-7.811,47.909-21.429
			c12.15-13.586,17.968-31.757,15.977-49.869l-7.661-93.069c17.157-2.274,31.974-5.71,44.301-10.304
			c38.001-14.162,45.977-37.334,45.977-54.28C485.699,258.433,469.378,230.865,442.036,209.305z M90.998,211.994
			c-32.001-13.271-47.558-31.902-47.558-56.959c0-28.926,21.231-63.638,55.406-90.591c38.682-30.504,87.098-47.304,136.334-47.304
			c49.236,0,97.654,16.799,136.334,47.304c34.176,26.953,55.406,61.664,55.406,90.591c0,13.867-4.716,25.598-14.371,35.708
			c-22.714-11.16-47.886-17.118-73.351-17.118c-37.14,0-73.663,12.672-102.839,35.681c-9.025,7.117-16.841,14.891-23.273,22.994
			C160.972,230.809,119.911,223.983,90.998,211.994z M275.311,440.702c-0.504,4.579-0.504,9.162-0.033,13.674
			c-11.858,7.945-25.618,12.135-40.099,12.135c-39.886,0-72.335-32.383-72.335-72.187c0-2.69,0.155-5.447,0.461-8.192
			c0.009-0.081,0.017-0.163,0.024-0.246l11.415-138.625c8.732,0.779,17.823,1.378,27.281,1.792
			c-6.055,11.389-9.329,22.987-9.329,33.996c0,30.702,25.002,46.464,45.977,54.28c12.327,4.594,27.143,8.03,44.3,10.304
			L275.311,440.702z M374.33,479.144c-8.93,9.986-21.736,15.714-35.132,15.714s-26.202-5.727-35.132-15.714
			c-8.929-9.986-13.196-23.351-11.705-36.664c0.009-0.083,0.018-0.167,0.024-0.251l7.638-92.79
			c12.102,0.994,25.156,1.504,39.174,1.504s27.074-0.51,39.174-1.504l7.64,92.79c0.007,0.083,0.015,0.167,0.024,0.251
			C387.527,455.794,383.26,469.158,374.33,479.144z M339.198,333.803c-48.313,0-129.361-6.594-129.361-50.755
			c0-19.12,14.229-42.22,37.136-60.284c26.165-20.634,58.919-31.998,92.226-31.998s66.059,11.363,92.226,31.998
			c22.906,18.064,37.136,41.164,37.136,60.284C468.558,327.209,387.511,333.803,339.198,333.803z"/>
	</g>
</g>
<g>
	<g>
		<path d="M424.347,231.737c-23.809-18.775-54.845-29.544-85.149-29.544c-4.733,0-8.57,3.837-8.57,8.57s3.837,8.571,8.57,8.571
			c26.525,0,53.693,9.426,74.535,25.862c19.264,15.192,26.258,30.96,26.258,37.852c0,4.733,3.837,8.57,8.57,8.57
			s8.571-3.837,8.571-8.57C457.131,267.583,444.263,247.443,424.347,231.737z"/>
	</g>
</g>
<g>
</g>
<g>
</g>
<g>
</g>
<g>
</g>
<g>
</g>
<g>
</g>
<g>
</g>
<g>
</g>
<g>
</g>
<g>
</g>
<g>
</g>
<g>
</g>
<g>
</g>
<g>
</g>
<g>
</g>
</svg>
